<svg width="103" height="103" viewBox="0 0 103 103" fill="none" xmlns="http://www.w3.org/2000/svg">
<path d="M0 0H83C94.0457 0 103 8.9543 103 20V83C103 94.0457 94.0457 103 83 103H0V0Z" fill="#7C5DFA"/>
<mask id="mask0_0_7598" style="mask-type:luminance" maskUnits="userSpaceOnUse" x="0" y="0" width="103" height="103">
<path d="M0 0H83C94.0457 0 103 8.9543 103 20V83C103 94.0457 94.0457 103 83 103H0V0Z" fill="white"/>
</mask>
<g mask="url(#mask0_0_7598)">
<path d="M103 52H20C8.95431 52 0 60.9543 0 72V135C0 146.046 8.95431 155 20 155H103V52Z" fill="#9277FF"/>
</g>
<path fill-rule="evenodd" clip-rule="evenodd" d="M42.6942 33.2923L52 52.0001L61.3058 33.2923C67.6645 36.6409 72 43.3142 72 51.0001C72 62.0458 63.0457 71.0001 52 71.0001C40.9543 71.0001 32 62.0458 32 51.0001C32 43.3142 36.3355 36.6409 42.6942 33.2923Z" fill="white"/>
</svg>
